<?xml version="1.0" encoding="utf-8"?>
<!-- Generator: Adobe Illustrator 16.0.0, SVG Export Plug-In . SVG Version: 6.00 Build 0)  -->
<!DOCTYPE svg PUBLIC "-//W3C//DTD SVG 1.1//EN" "http://www.w3.org/Graphics/SVG/1.1/DTD/svg11.dtd">
<svg version="1.1" xmlns="http://www.w3.org/2000/svg" xmlns:xlink="http://www.w3.org/1999/xlink" x="0px" y="0px"
	 width="283.46px" height="283.46px" viewBox="0 0 283.46 283.46" enable-background="new 0 0 283.46 283.46" xml:space="preserve">
<g id="BAse" display="none">
	<circle display="inline" fill="#FFFFFF" stroke="#000000" stroke-miterlimit="10" cx="143" cy="144" r="131"/>
	<path display="inline" fill="none" stroke="#000000" stroke-miterlimit="10" d="M233.612,49.397
		c0,52.29-40.528,94.603-90.612,94.603"/>
	<path display="inline" fill="none" stroke="#000000" stroke-miterlimit="10" d="M36.895,220.83
		c-0.013-42.458,47.44-76.828,106.094-76.846"/>
	<path display="inline" fill="none" stroke="#000000" stroke-miterlimit="10" d="M141.61,145.291
		c0.43-57.861-34.447-104.943-77.978-105.267"/>
	<path display="inline" fill="none" stroke="#000000" stroke-miterlimit="10" d="M141.61,145.291
		c0,51.576,41.15,93.312,92.002,93.312"/>
</g>
<g id="Layer_9" display="none">
	<rect y="0" display="inline" fill="#009688" width="283.461" height="283.459"/>
</g>
<g id="purp_1_">
	<g>
		<path fill="#905BA1" d="M65.211,220.295c46.306,44.078,119.445,42.277,163.527-4.027l0.271,0.364
			c-41.551-0.142-77.529-43.266-81.497-98.98l-0.073,0.767c-49.928,3.926-87.015,49.289-82.913,101.417"/>
	</g>
</g>
<g id="yellow">
	<g>
		<path fill="#F7E041" d="M57.396,58.049c-42.535,47.729-38.333,120.77,9.395,163.307l-0.355,0.283
			c-1.222-41.533,40.696-78.909,96.251-84.703l-0.769-0.048c-5.564-49.773-52.119-85.35-104.085-79.539"/>
	</g>
</g>
<g id="purp">
	<g>
		<path fill="#3997D3" d="M223.083,50.99C176.447,7.26,103.323,9.609,59.591,56.244l-0.274-0.362
			c41.551-0.169,77.852,42.682,82.237,98.366l0.066-0.768c49.898-4.301,86.644-49.939,82.151-102.036"/>
	</g>
</g>
<g id="yellow_1_">
	<g>
		<path fill="#E84C3C" d="M228.996,216.004c43.806-46.563,41.575-119.692-4.991-163.5l0.365-0.273
			c0.102,41.551-42.811,77.783-98.5,82.077l0.766,0.068c4.221,49.905,49.799,86.725,101.904,82.316"/>
	</g>
</g>
<g id="Layer_5">
	<circle fill="#009688" cx="144.342" cy="144.49" r="40.689"/>
</g>
<g id="_xA3_">

		<text transform="matrix(1.4167 0.0204 -0.0144 0.9999 121.646 165.2686)" fill="#FFFFFF" font-family="'FranklinGothic-Book'" font-size="60">?</text>
</g>
<g id="Layer_10" display="none">
	<g display="inline">
		<g>
			<path fill="#E30613" d="M168.158,188.262c2.716-5.201,6.961-8.908,12.507-10.851c3.021-1.06,1.722-5.891-1.33-4.822
				c-6.741,2.363-12.17,6.78-15.493,13.149C162.352,188.593,166.666,191.121,168.158,188.262L168.158,188.262z"/>
		</g>
	</g>
	<g display="inline">
		<g>
			<path fill="#E30613" d="M164.738,176.158c4.16,3.134,8.291,6.468,11.494,10.609c1.97,2.548,5.481-1.019,3.535-3.535
				c-3.466-4.482-8.009-8.004-12.506-11.391C164.684,169.899,162.196,174.244,164.738,176.158L164.738,176.158z"/>
		</g>
	</g>
</g>
</svg>
